<svg xmlns="http://www.w3.org/2000/svg" width="18" height="20.076" viewBox="0 0 18 20.076"><g transform="translate(-1188 -968.154)"><path d="M82.017,279.258a2.036,2.036,0,0,1-1.484-.59,1.959,1.959,0,0,1-.6-1.456,1.9,1.9,0,0,1,.6-1.438,2.082,2.082,0,0,1,1.489-.572,1.993,1.993,0,0,1,1.453.578,1.917,1.917,0,0,1,.589,1.425,2,2,0,0,1-.583,1.461A1.972,1.972,0,0,1,82.017,279.258Zm-6.651,3.972a2.29,2.29,0,0,1-1.67-.659,2.2,2.2,0,0,1-.671-1.638v-7.406a2.2,2.2,0,0,1,.671-1.638,2.29,2.29,0,0,1,1.67-.659H88.683a2.29,2.29,0,0,1,1.67.659,2.2,2.2,0,0,1,.671,1.638v7.406a2.2,2.2,0,0,1-.671,1.638,2.29,2.29,0,0,1-1.67.659Zm1.344-1.673h10.63a1.85,1.85,0,0,1,.582-1.375,1.93,1.93,0,0,1,1.4-.567v-4.77a1.922,1.922,0,0,1-1.4-.571,1.857,1.857,0,0,1-.578-1.372H76.709a1.85,1.85,0,0,1-.582,1.375,1.93,1.93,0,0,1-1.4.567v4.77a1.922,1.922,0,0,1,1.4.571A1.857,1.857,0,0,1,76.709,281.557Zm-1.344,0H74.73V272.9h.636a.617.617,0,0,0-.447.185.594.594,0,0,0-.189.439v7.406a.594.594,0,0,0,.189.439A.617.617,0,0,0,75.366,281.557Z" transform="translate(1114.976 705)" fill="#1e4290"/><path d="M177.227,255.154l-4-3.665,1.042-.924,2.23,2.044v-4.455h1.454v4.455l2.231-2.044,1.042.924Z" transform="translate(1019.772 720)" fill="#1e4290"/></g></svg>