<svg xmlns="http://www.w3.org/2000/svg" width="14" height="17" viewBox="0 0 14 17">
  <path id="task_FILL0_wght400_GRAD200_opsz24" d="M136.16,157.911l4.96-4.88-1.5-1.476-3.46,3.4-1.74-1.712-1.5,1.476ZM132.12,161a2.058,2.058,0,0,1-1.5-.613,1.992,1.992,0,0,1-.623-1.473V146.086a1.992,1.992,0,0,1,.623-1.473,2.058,2.058,0,0,1,1.5-.613h6.24l5.64,5.529v9.385a1.992,1.992,0,0,1-.623,1.473,2.058,2.058,0,0,1-1.5.613Zm5.2-10.428v-4.486h-5.2v12.829h9.76v-8.343Zm-5.2-4.486v0Z" transform="translate(-130 -144)" fill="#fff"/>
</svg>
