<svg id="task_alt_FILL0_wght400_GRAD200_opsz24_1_" data-name="task_alt_FILL0_wght400_GRAD200_opsz24 (1)" xmlns="http://www.w3.org/2000/svg" width="20" height="20" viewBox="0 0 20 20">
  <path id="task_alt_FILL0_wght400_GRAD200_opsz24_1_2" data-name="task_alt_FILL0_wght400_GRAD200_opsz24 (1)" d="M58,164a9.738,9.738,0,0,1-3.9-.788,9.984,9.984,0,0,1-5.312-5.312,10.07,10.07,0,0,1,0-7.811A10.128,10.128,0,0,1,50.93,146.9,9.95,9.95,0,0,1,58,144a9.8,9.8,0,0,1,3.021.458,10.169,10.169,0,0,1,2.628,1.278l-1.782,1.782a8.08,8.08,0,0,0-1.83-.783A7.564,7.564,0,1,0,65.546,154q0-.352-.035-.7a6.437,6.437,0,0,0-.1-.685l2.014-2.014a10.869,10.869,0,0,1,.428,1.653A10.029,10.029,0,0,1,68,154a9.822,9.822,0,0,1-.775,3.9A9.952,9.952,0,0,1,65.1,161.07a10.128,10.128,0,0,1-3.184,2.141A9.775,9.775,0,0,1,58,164Zm-1.3-5.278-4.4-4.4,1.713-1.713L56.7,155.3l9.583-9.583L68,147.426Z" transform="translate(-48 -144)" fill="#a38e5a"/>
</svg>
