<svg xmlns="http://www.w3.org/2000/svg" width="16" height="22" viewBox="0 0 16 22">
  <path id="description_FILL0_wght400_GRAD0_opsz20_1_" data-name="description_FILL0_wght400_GRAD0_opsz20 (1)" d="M196,209.875h8v-2.063h-8Zm0-4.125h8v-2.062h-8ZM193.992,214a1.884,1.884,0,0,1-1.409-.606,2.025,2.025,0,0,1-.583-1.457V194.063a2.018,2.018,0,0,1,.587-1.457A1.9,1.9,0,0,1,194,192h8.667L208,197.5v14.438a2.017,2.017,0,0,1-.588,1.457A1.9,1.9,0,0,1,206,214Zm7.341-15.125v-4.812H194v17.875h12V198.875ZM194,194.063v0Z" transform="translate(-192 -192)" fill="#1e4290"/>
</svg>
