<svg xmlns="http://www.w3.org/2000/svg" width="28" height="35.085" viewBox="0 0 28 35.085"><g transform="translate(5675.537 -3936.452)"><path d="M-5664.232,3961.264h-5.517a1.041,1.041,0,0,1-1.043-1.042,1.045,1.045,0,0,1,1.043-1.042h5.517a1.045,1.045,0,0,1,1.042,1.042,1.041,1.041,0,0,1-1.042,1.042Zm-5.517-7.629h11.756a1.042,1.042,0,0,1,1.043,1.042,1.042,1.042,0,0,1-1.043,1.042h-11.756a1.041,1.041,0,0,1-1.043-1.042,1.041,1.041,0,0,1,1.043-1.042Zm0-5.552h11.756a1.042,1.042,0,0,1,1.043,1.042,1.042,1.042,0,0,1-1.043,1.042h-11.756a1.041,1.041,0,0,1-1.043-1.042,1.041,1.041,0,0,1,1.043-1.042Zm0-5.552h5.079a1.042,1.042,0,0,1,1.043,1.042,1.041,1.041,0,0,1-1.043,1.042h-5.079a1.041,1.041,0,0,1-1.043-1.042,1.041,1.041,0,0,1,1.043-1.042Zm16.168,14.981a8.285,8.285,0,0,1,1.377.118v-13.014h-7.123a1.04,1.04,0,0,1-1.042-1.042v-7.122h-14.126a1.04,1.04,0,0,0-1.042,1.042v27.9a1.04,1.04,0,0,0,1.042,1.042h12.9a6.713,6.713,0,0,1-.049-.855,8.077,8.077,0,0,1,8.067-8.066Z" fill="#1e4290"/><path d="M-5640.381,3942.418l-5.559-5.559a1.034,1.034,0,0,0-.216-.161v5.936h5.936a.994.994,0,0,0-.161-.217Z" transform="translate(-12.131 -0.102)" fill="#00285e"/><path d="M-5642.257,3975.822a5.988,5.988,0,0,0-5.988,5.988,5.985,5.985,0,0,0,5.341,5.948,5.988,5.988,0,0,0,6.636-5.948,5.989,5.989,0,0,0-5.989-5.988Z" transform="translate(-11.268 -16.256)" fill="#a38e5a"/><path d="M-5637.161,3984.065a.616.616,0,0,1-.181.437.616.616,0,0,1-.438.181.611.611,0,0,1-.436-.181l-1.311-1.31v3.065a.618.618,0,0,1-.618.618.619.619,0,0,1-.619-.618v-3.065l-1.309,1.31a.621.621,0,0,1-.875,0,.613.613,0,0,1-.181-.437.617.617,0,0,1,.181-.438l2.366-2.365a.618.618,0,0,1,.437-.181.62.62,0,0,1,.437.181l2.365,2.366a.615.615,0,0,1,.181.437Z" transform="translate(-13.381 -18.427)" fill="#fff"/></g></svg>