<svg xmlns="http://www.w3.org/2000/svg" width="18" height="24" viewBox="0 0 18 24"><g transform="translate(0)"><path d="M-3002.521,4269.365l-2.049,4.713a.415.415,0,0,1-.735.048l-1.1-1.81-2.078.429a.412.412,0,0,1-.463-.568l2.134-4.919a1.7,1.7,0,0,0,.769,1.17,1.44,1.44,0,0,0,.741.191,3.208,3.208,0,0,0,1.218-.321c.119-.047.282-.114.4-.152.081.091.182.219.252.315a3.3,3.3,0,0,0,.913.9Z" transform="translate(3009.348 -4250.327)" fill="#a38e5a"/><path d="M-2978.532,4272.756l-2.073-.43-1.1,1.81a.414.414,0,0,1-.735-.047l-2.049-4.714a3.285,3.285,0,0,0,.913-.9c.076-.095.176-.229.252-.314.115.038.278.105.4.153a3.252,3.252,0,0,0,1.218.32,1.43,1.43,0,0,0,.74-.192,1.712,1.712,0,0,0,.769-1.164l2.135,4.913a.411.411,0,0,1-.463.568Z" transform="translate(2995.662 -4250.338)" fill="#a38e5a"/><path d="M-2996.825,4233.006l-1.755,1.738a.364.364,0,0,0-.1.319l.415,2.456a.356.356,0,0,1-.514.38l-2.169-1.159a.349.349,0,0,0-.331,0l-2.169,1.159a.357.357,0,0,1-.515-.38l.413-2.456a.362.362,0,0,0-.1-.319l-1.756-1.738a.362.362,0,0,1,.2-.615l2.426-.358a.353.353,0,0,0,.266-.2l1.086-2.233a.352.352,0,0,1,.636,0l1.085,2.233a.35.35,0,0,0,.267.2l2.425.358a.362.362,0,0,1,.2.615Zm4.707.928c0-.754-1.519-1.293-1.7-1.988-.189-.718.854-1.957.5-2.585s-1.943-.337-2.454-.854-.211-2.123-.841-2.492-1.837.7-2.544.5c-.683-.185-1.215-1.728-1.956-1.728s-1.273,1.543-1.956,1.728c-.708.192-1.926-.868-2.545-.5s-.332,1.974-.84,2.492-2.091.217-2.454.854.686,1.867.5,2.585c-.182.7-1.7,1.234-1.7,1.988s1.519,1.293,1.7,1.988c.189.718-.854,1.956-.5,2.585s1.944.337,2.454.854.212,2.125.839,2.493,1.838-.7,2.546-.5c.683.187,1.215,1.73,1.956,1.73s1.273-1.544,1.956-1.73c.707-.192,1.926.869,2.544.506s.333-1.976.841-2.493,2.09-.216,2.454-.854-.685-1.867-.5-2.585c.182-.7,1.7-1.236,1.7-1.988Z" transform="translate(3010.118 -4224.789)" fill="#1e4290"/></g></svg>