<svg xmlns="http://www.w3.org/2000/svg" width="17.6" height="22" viewBox="0 0 17.6 22"><path d="M-3068.6,4231.278h-2.88v1.7h1.135a.466.466,0,0,1,.466.468v14.6a.455.455,0,0,1-.466.454h-13.165a.466.466,0,0,1-.479-.454v-14.6a.478.478,0,0,1,.479-.468h1.12v-1.7h-2.865a.477.477,0,0,0-.479.467v18a.465.465,0,0,0,.479.453h16.655a.454.454,0,0,0,.466-.453v-18a.465.465,0,0,0-.466-.467Z" transform="translate(3085.732 -4228.197)" fill="#1e4290"/><path d="M-3068.171,4223.452a.647.647,0,0,1,.653.637.648.648,0,0,1-.653.637.648.648,0,0,1-.654-.637.648.648,0,0,1,.654-.637Zm-3.661,4.037h7.322a.332.332,0,0,0,.336-.329v-1.871a.331.331,0,0,0-.336-.327h-1.869v-.816a1.794,1.794,0,0,0-1.411-1.765,1.787,1.787,0,0,0-2.174,1.707v.874h-1.869a.33.33,0,0,0-.335.327v1.871a.332.332,0,0,0,.335.329Z" transform="translate(3076.971 -4222.344)" fill="#1e4290"/><path d="M-3062.5,4244.018a1.046,1.046,0,0,0,1.059,1.029h7.885a1.046,1.046,0,0,0,1.058-1.029,1.048,1.048,0,0,0-1.058-1.04h-7.885a1.048,1.048,0,0,0-1.059,1.04Z" transform="translate(3066.403 -4235.331)" fill="#a38e5a"/><path d="M-3053.554,4252.4h-7.885a1.049,1.049,0,0,0-1.059,1.04,1.048,1.048,0,0,0,1.059,1.03h7.885a1.047,1.047,0,0,0,1.058-1.03,1.049,1.049,0,0,0-1.058-1.04Z" transform="translate(3066.403 -4240.71)" fill="#a38e5a"/><path d="M-3053.554,4261.811h-7.885a1.048,1.048,0,0,0-1.059,1.039,1.046,1.046,0,0,0,1.059,1.031h7.885a1.046,1.046,0,0,0,1.058-1.031,1.048,1.048,0,0,0-1.058-1.039Z" transform="translate(3066.403 -4246.085)" fill="#a38e5a"/></svg>