<svg xmlns="http://www.w3.org/2000/svg" width="22.8" height="18" viewBox="0 0 22.8 18"><g transform="translate(0)"><path d="M-2920.35,4243.613a.863.863,0,0,1-.875.849h-18.189a.863.863,0,0,1-.875-.849v-11.669h19.939v11.669Zm-.875-15.762h-18.189a2.276,2.276,0,0,0-2.306,2.238v13.523a2.275,2.275,0,0,0,2.306,2.238h18.189a2.274,2.274,0,0,0,2.3-2.238v-13.523a2.274,2.274,0,0,0-2.3-2.238Z" transform="translate(2941.721 -4227.851)" fill="#1e4290"/><path d="M-2912.559,4254.206l-3.259,2.168a.422.422,0,0,1-.655-.351v-4.337a.422.422,0,0,1,.655-.352l3.259,2.171a.421.421,0,0,1,0,.7Zm-2.353-5.545a5.2,5.2,0,0,0-5.193,5.194,5.2,5.2,0,0,0,5.193,5.193,5.2,5.2,0,0,0,5.193-5.193,5.2,5.2,0,0,0-5.193-5.194Z" transform="translate(2926.312 -4243.473)" fill="#a38e5a"/></g></svg>