<svg xmlns="http://www.w3.org/2000/svg" width="14.667" height="14" viewBox="0 0 14.667 14"><path d="M15.667,8.493,14.04,6.633l.227-2.46L11.86,3.627,10.6,1.5l-2.267.973L6.067,1.5,4.807,3.627,2.4,4.167l.227,2.467L1,8.493l1.627,1.86L2.4,12.82l2.407.547L6.067,15.5l2.267-.98,2.267.973,1.26-2.127,2.407-.547-.227-2.46Zm-2.633.987-.373.433.053.567.12,1.3-1.267.287-.56.127-.293.493-.66,1.12-1.187-.513-.533-.227-.527.227-1.187.513-.66-1.113L5.667,12.2l-.56-.127L3.84,11.787l.12-1.307.053-.567L3.64,9.48,2.78,8.5l.86-.987.373-.433-.06-.573-.12-1.293L5.1,4.927,5.66,4.8l.293-.493.66-1.12L7.8,3.7l.533.227L8.86,3.7l1.187-.513.66,1.12L11,4.8l.56.127,1.267.287-.12,1.3-.053.567.373.433.86.98Z" transform="translate(-1 -1.5)" fill="#fff"/><path d="M8.823,11.79,7.277,10.237l-.987.993,2.533,2.54,4.893-4.907L12.73,7.87Z" transform="translate(-2.763 -3.623)" fill="#fff"/></svg>