<svg xmlns="http://www.w3.org/2000/svg" width="22" height="22" viewBox="0 0 22 22"><g transform="translate(0)"><path d="M-3168.062,4229.735a7.143,7.143,0,0,0-7.133,7.135,7.142,7.142,0,0,0,7.133,7.135,7.141,7.141,0,0,0,7.132-7.135,7.141,7.141,0,0,0-7.132-7.135Zm11.016,19.851a1.667,1.667,0,0,1-1.113-.459l-.006-.006-.007,0a1,1,0,0,1-.09-.082l-4.332-4.677-.08.057a9.2,9.2,0,0,1-5.388,1.739,9.294,9.294,0,0,1-9.282-9.285,9.3,9.3,0,0,1,9.282-9.284,9.294,9.294,0,0,1,9.282,9.284,9.2,9.2,0,0,1-1.743,5.393l-.057.082,4.692,4.336a1.572,1.572,0,0,1,.425,1.783,1.772,1.772,0,0,1-1.583,1.123Z" transform="translate(3177.345 -4227.585)" fill="#1e4290"/><path d="M-3165.438,4254.405v-2.69a.444.444,0,0,1,.444-.445h1.737a.444.444,0,0,1,.443.445v2.69a.444.444,0,0,1-.443.444h-1.737a.444.444,0,0,1-.444-.444Z" transform="translate(3169.77 -4242.652)" fill="#a38e5a"/><path d="M-3155.438,4249.376v-5.566a.444.444,0,0,1,.445-.445h1.736a.445.445,0,0,1,.445.445v5.566a.444.444,0,0,1-.445.443h-1.736a.443.443,0,0,1-.445-.443Z" transform="translate(3163.408 -4237.623)" fill="#a38e5a"/><path d="M-3145.437,4252.638v-3.7a.444.444,0,0,1,.444-.443h1.737a.444.444,0,0,1,.444.443v3.7a.444.444,0,0,1-.444.444h-1.737a.444.444,0,0,1-.444-.444Z" transform="translate(3157.045 -4240.887)" fill="#a38e5a"/></g></svg>