<svg xmlns="http://www.w3.org/2000/svg" width="14" height="12" viewBox="0 0 14 12"><path d="M55,194.505a2.953,2.953,0,0,0,2.111-.822,2.726,2.726,0,0,0,0-3.991,3.13,3.13,0,0,0-4.225,0,2.726,2.726,0,0,0,0,3.991A2.974,2.974,0,0,0,55,194.505ZM49.718,197a1.7,1.7,0,0,1-1.213-.477,1.52,1.52,0,0,1-.5-1.146V188a1.52,1.52,0,0,1,.5-1.146,1.7,1.7,0,0,1,1.213-.477h1.961L53.007,185h3.986l1.329,1.378h1.961a1.7,1.7,0,0,1,1.213.477A1.52,1.52,0,0,1,62,188v7.378a1.52,1.52,0,0,1-.5,1.146,1.7,1.7,0,0,1-1.213.477Z" transform="translate(-48 -185)" fill="#1e4290"/></svg>