<svg xmlns="http://www.w3.org/2000/svg" width="21" height="16.5" viewBox="0 0 21 16.5">
  <path id="icon-envelope" d="M21.75,6.75v10.5A2.25,2.25,0,0,1,19.5,19.5H4.5a2.25,2.25,0,0,1-2.25-2.25V6.75m19.5,0A2.25,2.25,0,0,0,19.5,4.5H4.5A2.25,2.25,0,0,0,2.25,6.75m19.5,0v.243a2.25,2.25,0,0,1-1.07,1.916l-7.5,4.615a2.25,2.25,0,0,1-2.36,0L3.32,8.91A2.25,2.25,0,0,1,2.25,6.994V6.75" transform="translate(-1.5 -3.75)" fill="none" stroke="#1e4290" stroke-linecap="round" stroke-linejoin="round" stroke-width="1.5"/>
</svg>
