<svg xmlns="http://www.w3.org/2000/svg" width="18" height="12.231" viewBox="0 0 18 12.231">
  <path id="visibility_FILL0_wght400_GRAD200_opsz20" d="M21-788.192a3.561,3.561,0,0,0,2.615-1.077,3.561,3.561,0,0,0,1.077-2.615,3.561,3.561,0,0,0-1.077-2.615A3.561,3.561,0,0,0,21-795.577a3.561,3.561,0,0,0-2.615,1.077,3.561,3.561,0,0,0-1.077,2.615,3.561,3.561,0,0,0,1.077,2.615A3.561,3.561,0,0,0,21-788.192ZM21-790a1.812,1.812,0,0,1-1.334-.55,1.823,1.823,0,0,1-.548-1.337,1.812,1.812,0,0,1,.55-1.334A1.823,1.823,0,0,1,21-793.769a1.812,1.812,0,0,1,1.334.55,1.823,1.823,0,0,1,.548,1.337,1.812,1.812,0,0,1-.55,1.334A1.824,1.824,0,0,1,21-790Zm0,4.231a9.45,9.45,0,0,1-5.458-1.673A9.5,9.5,0,0,1,12-791.885a9.5,9.5,0,0,1,3.542-4.442A9.45,9.45,0,0,1,21-798a9.45,9.45,0,0,1,5.458,1.673A9.5,9.5,0,0,1,30-791.885a9.5,9.5,0,0,1-3.542,4.442A9.45,9.45,0,0,1,21-785.769ZM21-791.885Zm0,4.231a7.694,7.694,0,0,0,4.065-1.136,7.619,7.619,0,0,0,2.877-3.095,7.619,7.619,0,0,0-2.877-3.095A7.693,7.693,0,0,0,21-796.115a7.693,7.693,0,0,0-4.065,1.136,7.619,7.619,0,0,0-2.877,3.095,7.619,7.619,0,0,0,2.877,3.095A7.694,7.694,0,0,0,21-787.654Z" transform="translate(-12 798)"/>
<script xmlns=""/></svg>