<svg xmlns="http://www.w3.org/2000/svg" width="14" height="14.04" viewBox="0 0 14 14.04"><path d="M133.98,236.04a6.974,6.974,0,0,1-6.98-6.98,6.859,6.859,0,0,1,2.042-4.977A6.663,6.663,0,0,1,133.98,222a6.367,6.367,0,0,1,2.657.575A8.016,8.016,0,0,1,138.9,224.1V222H141v6.623h-6.623v-2.1H138.1a4.9,4.9,0,0,0-1.765-1.686,4.91,4.91,0,0,0-5.82.793,4.652,4.652,0,0,0-1.418,3.431,4.841,4.841,0,0,0,4.878,4.878,4.777,4.777,0,0,0,2.806-.882,4.588,4.588,0,0,0,1.755-2.37h2.181a6.932,6.932,0,0,1-2.449,3.847A6.659,6.659,0,0,1,133.98,236.04Z" transform="translate(-127 -222)" fill="#1e4290"/></svg>