<svg xmlns="http://www.w3.org/2000/svg" width="16" height="22" viewBox="0 0 16 22">
  <path id="lock_FILL0_wght400_GRAD0_opsz20" d="M193.992,166a1.942,1.942,0,0,1-1.409-.57,1.849,1.849,0,0,1-.583-1.371V153.706a1.842,1.842,0,0,1,.587-1.371,1.956,1.956,0,0,1,1.413-.57h.667v-2.588a4.913,4.913,0,0,1,1.562-3.662,5.462,5.462,0,0,1,7.549,0,4.923,4.923,0,0,1,1.556,3.662v2.588H206a1.956,1.956,0,0,1,1.412.57,1.842,1.842,0,0,1,.588,1.371v10.353a1.842,1.842,0,0,1-.588,1.371A1.957,1.957,0,0,1,206,166Zm.008-1.941h12V153.706H194Zm6.006-3.235a1.941,1.941,0,0,0,1.411-.572,1.857,1.857,0,0,0,.583-1.375,1.829,1.829,0,0,0-.589-1.369,1.972,1.972,0,0,0-1.417-.566,1.941,1.941,0,0,0-1.411.572,1.857,1.857,0,0,0-.583,1.375,1.829,1.829,0,0,0,.589,1.369A1.972,1.972,0,0,0,200.006,160.824Zm-3.339-9.059h6.667v-2.588a3.074,3.074,0,0,0-.972-2.292,3.426,3.426,0,0,0-4.722,0,3.074,3.074,0,0,0-.972,2.292ZM194,164.059v0Z" transform="translate(-192 -144)" fill="#1e4290"/>
</svg>
