<svg xmlns="http://www.w3.org/2000/svg" width="68" height="68" viewBox="0 0 68 68">
  <g id="グループ_16826" data-name="グループ 16826" transform="translate(-250 -831)">
    <rect id="長方形_5278" data-name="長方形 5278" width="68" height="68" transform="translate(250 831)" fill="#dcdcdc"/>
    <path id="パス_155958" data-name="パス 155958" d="M-6.936,0V-8.59H-5.77l4.512,6.744V-8.59h1.09V0H-1.334L-5.846-6.75V0Zm8.51-3.111a3.207,3.207,0,0,1,.961-2.561,2.9,2.9,0,0,1,1.957-.691,2.792,2.792,0,0,1,2.1.841A3.2,3.2,0,0,1,7.4-3.2a4.117,4.117,0,0,1-.36,1.89A2.551,2.551,0,0,1,6-.24a3.054,3.054,0,0,1-1.5.381A2.8,2.8,0,0,1,2.38-.7,3.347,3.347,0,0,1,1.575-3.111Zm1.084,0a2.65,2.65,0,0,0,.521,1.79,1.672,1.672,0,0,0,1.313.595,1.662,1.662,0,0,0,1.307-.6,2.713,2.713,0,0,0,.521-1.822A2.571,2.571,0,0,0,5.8-4.9a1.668,1.668,0,0,0-1.3-.595A1.675,1.675,0,0,0,3.18-4.9,2.639,2.639,0,0,0,2.659-3.111ZM-16.265,2.623V1.41h1.055V2.623Zm0,7.377V3.777h1.055V10Zm3.02,0V3.777h.943V4.65a2.218,2.218,0,0,1,.779-.735,2.189,2.189,0,0,1,1.107-.278,2.047,2.047,0,0,1,1.134.287,1.537,1.537,0,0,1,.624.8,2.234,2.234,0,0,1,1.922-1.09,1.894,1.894,0,0,1,1.424.513,2.191,2.191,0,0,1,.5,1.579V10H-5.862V6.08a2.886,2.886,0,0,0-.1-.911.883.883,0,0,0-.372-.448,1.161,1.161,0,0,0-.633-.17,1.473,1.473,0,0,0-1.09.437,1.923,1.923,0,0,0-.434,1.4V10H-9.547V5.957A1.779,1.779,0,0,0-9.805,4.9a.976.976,0,0,0-.844-.352,1.533,1.533,0,0,0-.823.234,1.329,1.329,0,0,0-.548.686,3.859,3.859,0,0,0-.17,1.3V10ZM1.172,9.232a3.927,3.927,0,0,1-1.128.7,3.259,3.259,0,0,1-1.163.205A2.262,2.262,0,0,1-2.7,9.64a1.654,1.654,0,0,1-.551-1.28,1.7,1.7,0,0,1,.208-.835,1.722,1.722,0,0,1,.545-.606,2.562,2.562,0,0,1,.759-.346A7.536,7.536,0,0,1-.8,6.414a9.64,9.64,0,0,0,1.881-.363q.006-.217.006-.275a1.164,1.164,0,0,0-.3-.908A1.765,1.765,0,0,0-.41,4.51a1.863,1.863,0,0,0-1.1.261,1.593,1.593,0,0,0-.524.923l-1.031-.141A2.555,2.555,0,0,1-2.6,4.483a2.029,2.029,0,0,1,.932-.627,4.155,4.155,0,0,1,1.412-.22,3.738,3.738,0,0,1,1.295.188A1.706,1.706,0,0,1,1.77,4.3a1.659,1.659,0,0,1,.328.718,5.938,5.938,0,0,1,.053.973V7.393a14.926,14.926,0,0,0,.067,1.86A2.347,2.347,0,0,0,2.484,10h-1.1A2.236,2.236,0,0,1,1.172,9.232ZM1.084,6.877a7.738,7.738,0,0,1-1.723.4,3.985,3.985,0,0,0-.92.211.917.917,0,0,0-.416.343.9.9,0,0,0-.146.5.9.9,0,0,0,.319.7,1.374,1.374,0,0,0,.935.281A2.175,2.175,0,0,0,.217,9.048a1.642,1.642,0,0,0,.7-.729,2.548,2.548,0,0,0,.17-1.055Zm2.868,3.639,1.025.152a.977.977,0,0,0,.357.691,1.756,1.756,0,0,0,1.072.293,1.883,1.883,0,0,0,1.131-.293,1.442,1.442,0,0,0,.539-.82,6.736,6.736,0,0,0,.076-1.354A2.169,2.169,0,0,1,6.43,10a2.349,2.349,0,0,1-1.986-.926,3.565,3.565,0,0,1-.7-2.221A4.133,4.133,0,0,1,4.063,5.21,2.578,2.578,0,0,1,5,4.047a2.524,2.524,0,0,1,1.438-.41,2.231,2.231,0,0,1,1.816.891v-.75h.973V9.156a5.1,5.1,0,0,1-.3,2.06,2.164,2.164,0,0,1-.938.958,3.249,3.249,0,0,1-1.579.352,2.978,2.978,0,0,1-1.8-.5A1.694,1.694,0,0,1,3.952,10.516Zm.873-3.738a2.7,2.7,0,0,0,.486,1.787,1.6,1.6,0,0,0,2.438,0,2.612,2.612,0,0,0,.492-1.755A2.552,2.552,0,0,0,7.734,5.09a1.567,1.567,0,0,0-1.222-.58,1.522,1.522,0,0,0-1.2.571A2.537,2.537,0,0,0,4.825,6.777ZM15.439,8l1.09.135a2.659,2.659,0,0,1-.955,1.482,2.871,2.871,0,0,1-1.781.527A2.846,2.846,0,0,1,11.627,9.3a3.285,3.285,0,0,1-.8-2.358A3.438,3.438,0,0,1,11.636,4.5a2.737,2.737,0,0,1,2.1-.867,2.66,2.66,0,0,1,2.039.85,3.376,3.376,0,0,1,.791,2.391q0,.094-.006.281H11.917a2.391,2.391,0,0,0,.58,1.57,1.727,1.727,0,0,0,1.3.545,1.614,1.614,0,0,0,.99-.3A2.023,2.023,0,0,0,15.439,8ZM11.976,6.291H15.45a2.108,2.108,0,0,0-.4-1.178A1.616,1.616,0,0,0,13.745,4.5a1.675,1.675,0,0,0-1.222.486A1.925,1.925,0,0,0,11.976,6.291Z" transform="translate(284 878.193)" fill="#fff"/>
    <path id="no_photography_FILL1_wght400_GRAD0_opsz20" d="M51.019-852l-2.8-2.6H31.176a2.569,2.569,0,0,1-1.814-.693,2.213,2.213,0,0,1-.747-1.684v-13.387a2.213,2.213,0,0,1,.747-1.684,2.569,2.569,0,0,1,1.814-.693H32.3l15.24,14.179h-3.6L27-874.33,28.8-876l24.019,22.33ZM53-856.84l-6.675-6.226a4.321,4.321,0,0,0-.259-2.278,5.2,5.2,0,0,0-1.326-1.967,5.258,5.258,0,0,0-1.981-1.174,7.533,7.533,0,0,0-2.591-.3l-4.785-4.443,1.737-1.755H44.5l2.256,2.236H50.44a2.569,2.569,0,0,1,1.814.693A2.213,2.213,0,0,1,53-870.368ZM36.693-867.028a5.012,5.012,0,0,0-1.021,1.571,4.732,4.732,0,0,0-.351,1.8,4.742,4.742,0,0,0,1.6,3.609,5.5,5.5,0,0,0,3.886,1.486,5.814,5.814,0,0,0,1.936-.326,5.551,5.551,0,0,0,1.692-.948l-1.829-1.67a2.973,2.973,0,0,1-.853.425,3.177,3.177,0,0,1-.945.141,2.936,2.936,0,0,1-2.073-.792,2.529,2.529,0,0,1-.853-1.925,2.577,2.577,0,0,1,.152-.877,2.631,2.631,0,0,1,.457-.792Z" transform="translate(244 1718.345)" fill="#fff"/>
  </g>
</svg>
