<svg xmlns="http://www.w3.org/2000/svg" width="16" height="16" viewBox="0 0 16 16">
  <g id="グループ_16686" data-name="グループ 16686" transform="translate(-884 -531)">
    <path id="help_FILL1_wght400_GRAD200_opsz24" d="M55.96,156.852a1.079,1.079,0,0,0,.79-.321,1.066,1.066,0,0,0,.324-.787,1.079,1.079,0,0,0-.321-.79,1.066,1.066,0,0,0-.787-.324,1.079,1.079,0,0,0-.79.321,1.066,1.066,0,0,0-.324.787,1.079,1.079,0,0,0,.321.79A1.066,1.066,0,0,0,55.96,156.852Zm-.886-3.111h1.815a3.976,3.976,0,0,1,.12-1.1,3.206,3.206,0,0,1,.88-1.124,4.448,4.448,0,0,0,.778-.924,2.154,2.154,0,0,0,.3-1.154A1.976,1.976,0,0,0,58.1,147.7a3.485,3.485,0,0,0-2.031-.593,2.928,2.928,0,0,0-1.963.63,3.1,3.1,0,0,0-1,1.556l1.593.63a1.744,1.744,0,0,1,.343-.75,1.167,1.167,0,0,1,1.028-.435,1.1,1.1,0,0,1,.824.3.9.9,0,0,1,.287.63,1.143,1.143,0,0,1-.241.694,3.506,3.506,0,0,1-.574.6,5.25,5.25,0,0,0-1.111,1.185A4.292,4.292,0,0,0,55.074,153.741ZM56,160a7.79,7.79,0,0,1-3.12-.63,7.987,7.987,0,0,1-4.25-4.25,8.056,8.056,0,0,1,0-6.249,8.1,8.1,0,0,1,1.713-2.547A7.991,7.991,0,0,1,64,152a7.862,7.862,0,0,1-.62,3.119,7.962,7.962,0,0,1-1.7,2.536,8.1,8.1,0,0,1-2.547,1.713A7.82,7.82,0,0,1,56,160Z" transform="translate(836 387)" fill="#1e4290"/>
  </g>
</svg>
