<svg id="info_FILL1_wght400_GRAD200_opsz24" xmlns="http://www.w3.org/2000/svg" width="16" height="16" viewBox="0 0 16 16">
  <path id="info_FILL1_wght400_GRAD200_opsz24-2" data-name="info_FILL1_wght400_GRAD200_opsz24" d="M55.037,156H57v-4.741H55.037Zm.96-6.519a.9.9,0,0,0,.661-.265.887.887,0,0,0,.269-.657.9.9,0,0,0-.265-.661A.887.887,0,0,0,56,147.63a.9.9,0,0,0-.661.265.887.887,0,0,0-.269.657.9.9,0,0,0,.265.661A.887.887,0,0,0,56,149.481ZM56,160a7.79,7.79,0,0,1-3.12-.63,7.987,7.987,0,0,1-4.25-4.25,8.056,8.056,0,0,1,0-6.249,8.1,8.1,0,0,1,1.713-2.547A7.991,7.991,0,0,1,64,152a7.862,7.862,0,0,1-.62,3.119,7.962,7.962,0,0,1-1.7,2.536,8.1,8.1,0,0,1-2.547,1.713A7.82,7.82,0,0,1,56,160Z" transform="translate(-48 -144)" fill="#1e4290"/>
</svg>
