<svg xmlns="http://www.w3.org/2000/svg" width="14" height="18" viewBox="0 0 14 18">
  <g id="グループ_16664" data-name="グループ 16664" transform="translate(5675.537 -3936.452)">
    <path id="パス_155026" data-name="パス 155026" d="M-5669.885,3949.181h-2.758a.528.528,0,0,1-.522-.535.529.529,0,0,1,.522-.535h2.758a.53.53,0,0,1,.521.535.528.528,0,0,1-.521.535Zm-2.758-3.914h5.878a.528.528,0,0,1,.521.535.528.528,0,0,1-.521.535h-5.878a.527.527,0,0,1-.522-.535.527.527,0,0,1,.522-.535Zm0-2.848h5.878a.528.528,0,0,1,.521.535.528.528,0,0,1-.521.535h-5.878a.528.528,0,0,1-.522-.535.527.527,0,0,1,.522-.535Zm0-2.848h2.539a.528.528,0,0,1,.522.535.528.528,0,0,1-.522.535h-2.539a.527.527,0,0,1-.522-.535.527.527,0,0,1,.522-.535Zm8.083,7.686a4.043,4.043,0,0,1,.689.061v-6.677h-3.562a.527.527,0,0,1-.521-.535v-3.654h-7.062a.527.527,0,0,0-.521.535V3951.3a.527.527,0,0,0,.521.535h6.448a3.577,3.577,0,0,1-.024-.438,4.092,4.092,0,0,1,4.033-4.138Z" fill="#fff"/>
    <path id="パス_155027" data-name="パス 155027" d="M-5643.269,3939.633l-2.779-2.852a.55.55,0,0,0-.108-.083v3.046h2.968a.536.536,0,0,0-.081-.112Z" transform="translate(-20.756 -0.173)" fill="#fff"/>
    <path id="パス_155028" data-name="パス 155028" d="M-5645.251,3975.822a3.034,3.034,0,0,0-2.994,3.072,3.043,3.043,0,0,0,2.67,3.052,3.024,3.024,0,0,0,3.318-3.052,3.034,3.034,0,0,0-2.994-3.072Z" transform="translate(-19.28 -27.512)" fill="#1e4290"/>
    <path id="パス_155029" data-name="パス 155029" d="M-5640.144,3982.612a.319.319,0,0,1-.091.224.3.3,0,0,1-.219.093.3.3,0,0,1-.218-.093l-.655-.672v1.573a.313.313,0,0,1-.309.317.313.313,0,0,1-.309-.317v-1.573l-.655.672a.3.3,0,0,1-.437,0,.318.318,0,0,1-.09-.224.319.319,0,0,1,.09-.225l1.183-1.213a.3.3,0,0,1,.218-.093.3.3,0,0,1,.218.093l1.183,1.214a.318.318,0,0,1,.091.224Z" transform="translate(-22.895 -31.186)" fill="#fff"/>
  </g>
</svg>
