<svg xmlns="http://www.w3.org/2000/svg" width="18" height="18" viewBox="0 0 18 18">
  <path id="account_circle_FILL0_wght400_GRAD0_opsz20" d="M99.3,205.57a9.37,9.37,0,0,1,2.707-1.324,10.514,10.514,0,0,1,5.977,0,9.37,9.37,0,0,1,2.707,1.324,6.465,6.465,0,0,0,1.219-2.133,7.52,7.52,0,0,0,.4-2.437,7.313,7.313,0,1,0-14.625,0,7.52,7.52,0,0,0,.4,2.438A6.465,6.465,0,0,0,99.3,205.57Zm5.7-2.883a3.361,3.361,0,1,1,2.391-.984A3.255,3.255,0,0,1,105,202.688Zm.006,7.313a8.787,8.787,0,0,1-3.5-.7,9.04,9.04,0,0,1-4.8-4.8,9.055,9.055,0,0,1,0-7,9.071,9.071,0,0,1,4.8-4.793,9.055,9.055,0,0,1,7,0,9.086,9.086,0,0,1,4.793,4.8,9.04,9.04,0,0,1,0,6.991,9.055,9.055,0,0,1-4.8,4.8A8.741,8.741,0,0,1,105.006,210ZM105,208.313a7.159,7.159,0,0,0,2.344-.387,7.475,7.475,0,0,0,2.109-1.137,8.435,8.435,0,0,0-2.133-.961A8.244,8.244,0,0,0,105,205.5a8.657,8.657,0,0,0-2.332.316,7.357,7.357,0,0,0-2.121.973,7.475,7.475,0,0,0,2.109,1.137A7.159,7.159,0,0,0,105,208.313ZM105,201a1.68,1.68,0,1,0-1.2-.492A1.627,1.627,0,0,0,105,201ZM105,199.313ZM105,206.789Z" transform="translate(-96 -192)" fill="#1e4290"/>
</svg>
